<svg width="48" height="48" viewBox="0 0 48 48" fill="none" xmlns="http://www.w3.org/2000/svg">
<path fill-rule="evenodd" clip-rule="evenodd" d="M24 1H4C2.34315 1 1 2.34315 1 4V24L24 24V1ZM24 0H4C1.79086 0 0 1.79086 0 4V24V25V44C0 46.2091 1.79086 48 4 48H24H25H44C46.2091 48 48 46.2091 48 44V25V24V4C48 1.79086 46.2091 0 44 0H25H24ZM25 24H47V4C47 2.34315 45.6569 1 44 1H25V24ZM1 25V44C1 45.6569 2.34315 47 4 47H24V25L1 25ZM25 47V25H47V44C47 45.6569 45.6569 47 44 47H25ZM12.5 16C14.433 16 16 14.433 16 12.5C16 10.567 14.433 9 12.5 9C10.567 9 9 10.567 9 12.5C9 14.433 10.567 16 12.5 16ZM12.5 17C14.9853 17 17 14.9853 17 12.5C17 10.0147 14.9853 8 12.5 8C10.0147 8 8 10.0147 8 12.5C8 14.9853 10.0147 17 12.5 17ZM12.5 40C14.9853 40 17 37.9853 17 35.5C17 33.0147 14.9853 31 12.5 31C10.0147 31 8 33.0147 8 35.5C8 37.9853 10.0147 40 12.5 40ZM34.634 9.5C35.0189 8.83333 35.9811 8.83333 36.366 9.5L39.3971 14.75C39.782 15.4167 39.3009 16.25 38.5311 16.25H32.4689C31.6991 16.25 31.218 15.4167 31.6029 14.75L34.634 9.5ZM32 32H39V39H32V32ZM31 32C31 31.4477 31.4477 31 32 31H39C39.5523 31 40 31.4477 40 32V39C40 39.5523 39.5523 40 39 40H32C31.4477 40 31 39.5523 31 39V32Z" fill="#1C1D23"/>
</svg>
