<svg width="48" height="48" viewBox="0 0 48 48" fill="none" xmlns="http://www.w3.org/2000/svg">
<path fill-rule="evenodd" clip-rule="evenodd" d="M44 4H4C2.34315 4 1 5.34315 1 7V11C1 12.6569 2.34315 14 4 14H44C45.6569 14 47 12.6569 47 11V7C47 5.34315 45.6569 4 44 4ZM4 3C1.79086 3 0 4.79086 0 7V11C0 13.2091 1.79086 15 4 15H44C46.2091 15 48 13.2091 48 11V7C48 4.79086 46.2091 3 44 3H4ZM8 9C8 10.1046 7.10457 11 6 11C4.89543 11 4 10.1046 4 9C4 7.89543 4.89543 7 6 7C7.10457 7 8 7.89543 8 9ZM6 26C7.10457 26 8 25.1046 8 24C8 22.8954 7.10457 22 6 22C4.89543 22 4 22.8954 4 24C4 25.1046 4.89543 26 6 26ZM8 39C8 40.1046 7.10457 41 6 41C4.89543 41 4 40.1046 4 39C4 37.8954 4.89543 37 6 37C7.10457 37 8 37.8954 8 39ZM13 9C13 9.55228 12.5523 10 12 10C11.4477 10 11 9.55228 11 9C11 8.44772 11.4477 8 12 8C12.5523 8 13 8.44772 13 9ZM14 9C14 10.1046 13.1046 11 12 11C10.8954 11 10 10.1046 10 9C10 7.89543 10.8954 7 12 7C13.1046 7 14 7.89543 14 9ZM12 25C12.5523 25 13 24.5523 13 24C13 23.4477 12.5523 23 12 23C11.4477 23 11 23.4477 11 24C11 24.5523 11.4477 25 12 25ZM12 26C13.1046 26 14 25.1046 14 24C14 22.8954 13.1046 22 12 22C10.8954 22 10 22.8954 10 24C10 25.1046 10.8954 26 12 26ZM13 39C13 39.5523 12.5523 40 12 40C11.4477 40 11 39.5523 11 39C11 38.4477 11.4477 38 12 38C12.5523 38 13 38.4477 13 39ZM14 39C14 40.1046 13.1046 41 12 41C10.8954 41 10 40.1046 10 39C10 37.8954 10.8954 37 12 37C13.1046 37 14 37.8954 14 39ZM44 19H4C2.34315 19 1 20.3431 1 22V26C1 27.6569 2.34315 29 4 29H44C45.6569 29 47 27.6569 47 26V22C47 20.3431 45.6569 19 44 19ZM4 18C1.79086 18 0 19.7909 0 22V26C0 28.2091 1.79086 30 4 30H44C46.2091 30 48 28.2091 48 26V22C48 19.7909 46.2091 18 44 18H4ZM4 34H44C45.6569 34 47 35.3431 47 37V41C47 42.6569 45.6569 44 44 44H4C2.34315 44 1 42.6569 1 41V37C1 35.3431 2.34315 34 4 34ZM0 37C0 34.7909 1.79086 33 4 33H44C46.2091 33 48 34.7909 48 37V41C48 43.2091 46.2091 45 44 45H4C1.79086 45 0 43.2091 0 41V37Z" fill="white"/>
</svg>
