<svg width="48" height="48" viewBox="0 0 48 48" fill="none" xmlns="http://www.w3.org/2000/svg">
<path fill-rule="evenodd" clip-rule="evenodd" d="M4 1H44C45.6569 1 47 2.34315 47 4V8L1 8V4C1 2.34315 2.34315 1 4 1ZM48 4V8V9V48H35C34.7239 48 34.5 47.7761 34.5 47.5C34.5 47.2239 34.7239 47 35 47H47V9L1 9V47H13C13.2761 47 13.5 47.2239 13.5 47.5C13.5 47.7761 13.2761 48 13 48H0V9V8V4C0 1.79086 1.79086 0 4 0H44C46.2091 0 48 1.79086 48 4ZM20.4644 18.3284L23.6464 15.1464C23.8417 14.9512 24.1583 14.9512 24.3535 15.1464L27.5355 18.3284C27.7308 18.5237 27.7308 18.8403 27.5355 19.0355C27.3402 19.2308 27.0237 19.2308 26.8284 19.0355L24.5 16.7071L24.5 47.5C24.5 47.7761 24.2761 48 24 48C23.7238 48 23.5 47.7761 23.5 47.5L23.5 16.7071L21.1715 19.0355C20.9763 19.2308 20.6597 19.2308 20.4644 19.0355C20.2692 18.8403 20.2692 18.5237 20.4644 18.3284ZM9.64645 27.1465C9.45118 27.3417 9.45118 27.6583 9.64645 27.8536L12.8284 31.0355C13.0237 31.2308 13.3403 31.2308 13.5355 31.0355C13.7308 30.8403 13.7308 30.5237 13.5355 30.3284L11.2071 28H15C16.933 28 18.5 29.567 18.5 31.5V47.5C18.5 47.7761 18.7239 48 19 48C19.2761 48 19.5 47.7761 19.5 47.5V31.5C19.5 29.0147 17.4853 27 15 27H11.2071L13.5355 24.6716C13.7308 24.4763 13.7308 24.1597 13.5355 23.9645C13.3403 23.7692 13.0237 23.7692 12.8284 23.9645L9.64645 27.1465ZM38.3536 27.1465C38.5488 27.3417 38.5488 27.6583 38.3536 27.8536L35.1716 31.0355C34.9763 31.2308 34.6597 31.2308 34.4645 31.0355C34.2692 30.8403 34.2692 30.5237 34.4645 30.3284L36.7929 28H33C31.067 28 29.5 29.567 29.5 31.5V47.5C29.5 47.7761 29.2761 48 29 48C28.7239 48 28.5 47.7761 28.5 47.5V31.5C28.5 29.0147 30.5147 27 33 27H36.7929L34.4645 24.6716C34.2692 24.4763 34.2692 24.1597 34.4645 23.9645C34.6597 23.7692 34.9763 23.7692 35.1716 23.9645L38.3536 27.1465Z" fill="#1C1D23"/>
</svg>
