<svg width="48" height="48" viewBox="0 0 48 48" fill="none" xmlns="http://www.w3.org/2000/svg">
<path fill-rule="evenodd" clip-rule="evenodd" d="M29.331 1.62096L27.6473 7.90448C26.6339 7.67583 25.5852 7.54042 24.5107 7.50775V1.00556C26.1665 1.04163 27.7792 1.25268 29.331 1.62096ZM23.4894 1.00556V7.50775C22.4148 7.54041 21.3661 7.67582 20.3527 7.90449L18.669 1.62097C20.2208 1.25268 21.8336 1.04162 23.4894 1.00556ZM17.6808 1.87896L19.3639 8.16023C18.3379 8.46004 17.3532 8.85684 16.4205 9.34003L13.1675 3.70556C14.5893 2.94506 16.1003 2.3296 17.6808 1.87896ZM12.2778 4.20719L15.5286 9.83777C14.6128 10.3868 13.7546 11.0221 12.9653 11.7325L8.36454 7.13177C9.55822 6.02481 10.8696 5.04299 12.2778 4.20719ZM7.63112 7.84265L12.2274 12.439C11.4771 13.203 10.8005 14.0397 10.2093 14.9376L4.57241 11.6832C5.45436 10.295 6.481 9.00773 7.63112 7.84265ZM4.04392 12.5574L9.67406 15.8079C9.13948 16.7407 8.69339 17.7308 8.34724 18.7666L2.05874 17.0816C2.55946 15.4921 3.22812 13.9771 4.04392 12.5574ZM1.77371 18.0625L8.05379 19.7452C7.77675 20.7862 7.59894 21.8676 7.53109 22.9787H1.02227C1.09623 21.2861 1.35314 19.6409 1.77371 18.0625ZM1 24H7.5C7.5 25.1279 7.61318 26.2294 7.82879 27.2938L1.54031 28.9787C1.18652 27.3756 1 25.7096 1 24ZM1.78269 29.9711L8.06277 28.2884C8.35538 29.3785 8.75688 30.4242 9.25489 31.4128L3.61803 34.6673C2.8429 33.1893 2.22383 31.6166 1.78269 29.9711ZM4.11245 35.5611L9.74259 32.3105C10.3129 33.2869 10.9807 34.1994 11.7326 35.0347L7.13178 39.6355C5.98271 38.3964 4.96849 37.0305 4.11245 35.5611ZM7.84266 40.3689L12.439 35.7726C13.2473 36.5665 14.1371 37.2778 15.0945 37.8928L11.8415 43.5273C10.3928 42.6233 9.0519 41.5626 7.84266 40.3689ZM12.7198 44.0485L15.9706 38.418C16.9591 38.9697 18.0103 39.4226 19.1107 39.7636L17.427 46.0471C15.7722 45.5545 14.1955 44.8806 12.7198 44.0485ZM18.4121 46.3165L20.0952 40.0352C21.1881 40.3004 22.3235 40.4568 23.4894 40.4922V46.9944C21.742 46.9564 20.0426 46.7234 18.4121 46.3165ZM24.5107 46.9944V40.4922C25.6765 40.4568 26.8119 40.3004 27.9048 40.0352L29.5878 46.3165C27.9574 46.7234 26.258 46.9564 24.5107 46.9944ZM30.573 46.0471L28.8893 39.7636C29.9897 39.4226 31.0409 38.9697 32.0294 38.4179L35.2802 44.0485C33.8045 44.8806 32.2278 45.5545 30.573 46.0471ZM36.1585 43.5272L32.9055 37.8928C33.8629 37.2778 34.7527 36.5665 35.561 35.7726L40.1573 40.3689C38.9481 41.5626 37.6073 42.6233 36.1585 43.5272ZM40.8682 39.6355L36.2675 35.0347C37.0193 34.1994 37.6871 33.2869 38.2574 32.3105L43.8876 35.5611C43.0315 37.0305 42.0173 38.3964 40.8682 39.6355ZM44.382 34.6673L38.7451 31.4128C39.2431 30.4242 39.6446 29.3786 39.9372 28.2884L46.2173 29.9711C45.7762 31.6166 45.1571 33.1893 44.382 34.6673ZM46.4597 28.9788L40.1712 27.2938C40.3868 26.2294 40.5 25.1279 40.5 24H47C47 25.7096 46.8135 27.3756 46.4597 28.9788ZM46.9777 22.9787H40.4689C40.4011 21.8676 40.2232 20.7862 39.9462 19.7452L46.2263 18.0625C46.6469 19.6409 46.9038 21.2861 46.9777 22.9787ZM45.9412 17.0815L39.6528 18.7665C39.3066 17.7308 38.8605 16.7407 38.3259 15.8079L43.9561 12.5574C44.7719 13.9771 45.4405 15.4921 45.9412 17.0815ZM43.4276 11.6832L37.7907 14.9376C37.1995 14.0397 36.5229 13.203 35.7726 12.439L40.3689 7.84266C41.519 9.00774 42.5456 10.295 43.4276 11.6832ZM39.6355 7.13178L35.0347 11.7326C34.2454 11.0221 33.3872 10.3868 32.4714 9.83778L35.7222 4.2072C37.1304 5.043 38.4418 6.02482 39.6355 7.13178ZM34.8326 3.70557L31.5795 9.34004C30.6468 8.85684 29.6621 8.46004 28.6361 8.16022L30.3191 1.87895C31.8997 2.3296 33.4107 2.94506 34.8326 3.70557ZM30.5781 0.912663C32.2439 1.3864 33.836 2.03557 35.3329 2.83894C35.6333 3.00013 35.9298 3.16754 36.2223 3.34098C37.7063 4.22083 39.0874 5.25604 40.3431 6.42419C40.5924 6.65613 40.8368 6.8933 41.076 7.13554C42.2876 8.36228 43.3681 9.71893 44.2945 11.1827C44.4764 11.4702 44.6524 11.7617 44.8223 12.0573C45.6813 13.5518 46.3841 15.1477 46.9083 16.8224C47.0098 17.1466 47.1045 17.4737 47.1925 17.8036C47.6351 19.4647 47.9041 21.1966 47.9787 22.9787C47.9928 23.3174 48 23.6579 48 24C48 25.7991 47.8021 27.5519 47.4267 29.2379C47.3525 29.5713 47.2714 29.902 47.1835 30.23C46.7195 31.9609 46.0668 33.6146 45.2489 35.1678C45.09 35.4694 44.9249 35.7673 44.7537 36.0612C43.8538 37.6064 42.7861 39.042 41.5758 40.3431C41.3439 40.5924 41.1067 40.8367 40.8645 41.076C39.5936 42.3312 38.1833 43.4456 36.6589 44.3939C36.3701 44.5735 36.0772 44.7472 35.7803 44.9148C34.2298 45.79 32.5721 46.4978 30.8319 47.0136C30.5064 47.1101 30.1779 47.1999 29.8468 47.2828C28.1336 47.7116 26.3475 47.9563 24.5107 47.9947C24.3409 47.9982 24.1706 48 24 48C23.8294 48 23.6592 47.9982 23.4894 47.9947C21.6525 47.9563 19.8664 47.7116 18.1532 47.2828C17.8221 47.1999 17.4936 47.1101 17.168 47.0136C15.4279 46.4978 13.7703 45.79 12.2197 44.9148C11.9229 44.7472 11.63 44.5735 11.3411 44.3939C9.81673 43.4456 8.40642 42.3312 7.13554 41.076C6.8933 40.8368 6.65613 40.5924 6.42419 40.3431C5.21386 39.042 4.14625 37.6064 3.24628 36.0612C3.07511 35.7673 2.91001 35.4694 2.75114 35.1678C1.93318 33.6146 1.28051 31.9609 0.816525 30.23C0.728607 29.902 0.647463 29.5712 0.573254 29.2379C0.19795 27.5519 0 25.7991 0 24V24C0 23.6579 0.00715934 23.3174 0.0213364 22.9787C0.0959424 21.1966 0.364892 19.4647 0.807544 17.8036C0.895461 17.4737 0.990229 17.1466 1.09169 16.8224C1.61589 15.1477 2.31867 13.5518 3.17775 12.0573C3.34762 11.7617 3.52361 11.4702 3.70553 11.1827C4.63194 9.71893 5.71236 8.36228 6.924 7.13553C7.16325 6.89329 7.40763 6.65612 7.65695 6.42418C8.91265 5.25603 10.2937 4.22083 11.7777 3.34097C12.0702 3.16753 12.3668 3.00012 12.6671 2.83893C14.164 2.03557 15.756 1.3864 17.4219 0.912667C17.7485 0.819795 18.0779 0.733665 18.41 0.654438C20.0446 0.264484 21.7441 0.0417519 23.4894 0.00532424C23.6592 0.0017806 23.8294 0 24 0C24.1706 0 24.3409 0.00178087 24.5107 0.00532504C26.2559 0.041755 27.9554 0.264486 29.59 0.654434C29.9221 0.733661 30.2515 0.819791 30.5781 0.912663ZM24 8.5C15.4396 8.5 8.5 15.4396 8.5 24C8.5 32.5604 15.4396 39.5 24 39.5C32.5604 39.5 39.5 32.5604 39.5 24C39.5 15.4396 32.5604 8.5 24 8.5ZM16.5 24C16.5 19.8579 19.8579 16.5 24 16.5C28.1421 16.5 31.5 19.8579 31.5 24C31.5 28.1421 28.1421 31.5 24 31.5C19.8579 31.5 16.5 28.1421 16.5 24ZM24 15.5C19.3056 15.5 15.5 19.3056 15.5 24C15.5 28.6944 19.3056 32.5 24 32.5C28.6944 32.5 32.5 28.6944 32.5 24C32.5 19.3056 28.6944 15.5 24 15.5Z" fill="#1C1D23"/>
</svg>
